<?xml version="1.0" standalone="no"?>
<!DOCTYPE svg PUBLIC "-//W3C//DTD SVG 20010904//EN"
 "http://www.w3.org/TR/2001/REC-SVG-20010904/DTD/svg10.dtd">
<svg version="1.0" xmlns="http://www.w3.org/2000/svg"
 width="300.000000pt" height="440.000000pt" viewBox="0 0 300.000000 440.000000"
 preserveAspectRatio="xMidYMid meet">
<metadata>
Created by potrace 1.10, written by Peter Selinger 2001-2011
</metadata>
<g transform="translate(0.000000,440.000000) scale(0.100000,-0.100000)"
fill="#000000" stroke="none">
<path d="M1460 4385 c0 -12 -15 -15 -74 -15 -78 0 -103 -13 -92 -47 4 -14 -3
-23 -29 -37 -50 -27 -61 -42 -44 -62 10 -13 30 -15 101 -12 98 3 99 4 120 75
18 62 30 53 26 -19 l-3 -63 55 -5 c53 -6 54 -6 16 -10 -58 -7 -55 -25 6 -45
29 -10 62 -26 74 -36 42 -38 72 -18 71 48 0 26 7 48 17 58 14 15 15 19 1 38
-8 12 -15 34 -15 49 0 40 -24 58 -79 58 -68 0 -111 10 -111 26 0 8 -9 14 -20
14 -11 0 -20 -7 -20 -15z"/>
<path d="M1204 4179 c-3 -6 -15 -9 -25 -6 -14 4 -27 -6 -49 -38 -17 -24 -30
-48 -30 -53 0 -5 -9 -21 -20 -35 -16 -20 -17 -27 -6 -36 7 -6 16 -8 19 -5 3 4
23 8 44 9 20 1 39 7 41 14 2 6 23 11 47 11 43 0 65 12 45 25 -7 5 -5 11 6 19
27 21 0 29 -68 22 -58 -7 -59 -7 -48 13 6 12 17 21 24 21 13 0 46 31 46 43 0
11 -18 8 -26 -4z"/>
<path d="M1410 4150 c0 -7 3 -10 7 -7 3 4 3 10 0 14 -4 3 -7 0 -7 -7z"/>
<path d="M1826 4111 c-3 -5 4 -21 16 -37 14 -17 21 -39 20 -55 -3 -28 19 -49
52 -49 24 0 19 29 -6 40 -18 7 -19 9 -5 9 26 1 21 17 -19 61 -37 41 -49 47
-58 31z"/>
<path d="M1315 4099 c-10 -15 1 -23 20 -15 9 3 13 10 10 16 -8 13 -22 13 -30
-1z"/>
<path d="M1423 4103 c4 -3 10 -3 14 0 3 4 0 7 -7 7 -7 0 -10 -3 -7 -7z"/>
<path d="M1764 4032 c4 -11 -2 -22 -17 -32 -18 -11 -78 -14 -312 -15 -297 -2
-366 -7 -386 -31 -9 -12 -3 -14 34 -14 25 0 57 -5 70 -11 18 -8 44 -8 98 1
114 19 462 29 474 14 6 -7 24 -15 40 -17 17 -2 4 -5 -27 -6 -44 -1 -58 -5 -58
-16 0 -10 10 -15 30 -15 19 0 30 -5 30 -14 0 -15 -92 -24 -264 -25 -50 -1
-128 -6 -175 -11 -47 -5 -121 -10 -163 -10 -56 0 -81 -4 -92 -16 -9 -8 -16
-17 -16 -18 0 -1 27 0 60 2 46 3 63 1 76 -13 14 -13 28 -16 68 -11 148 18 295
24 413 17 127 -6 195 -21 100 -21 -35 0 -47 -4 -47 -15 0 -10 11 -15 35 -15
19 0 35 -4 35 -8 0 -5 -87 -12 -192 -16 -214 -7 -458 -23 -501 -32 -33 -7 -30
-29 4 -30 13 0 32 -4 42 -9 16 -6 144 2 449 30 34 3 48 0 52 -11 4 -10 24 -14
73 -15 37 -1 60 -3 51 -6 -10 -2 -18 -11 -18 -19 0 -11 9 -14 32 -12 18 2 33
-2 35 -9 4 -10 -23 -13 -114 -13 -135 0 -195 -8 -190 -24 2 -7 40 -12 98 -14
149 -4 209 -12 209 -27 0 -10 -32 -12 -151 -9 -83 2 -155 7 -161 10 -6 4 -13
2 -17 -3 -3 -6 -83 -12 -188 -15 -140 -4 -187 -8 -205 -20 -13 -9 -36 -13 -54
-11 -65 10 -80 -34 -99 -282 -29 -372 -34 -409 -59 -480 -76 -218 -159 -394
-240 -505 -129 -180 -158 -232 -204 -365 -73 -213 -67 -495 15 -725 34 -93
167 -272 263 -354 19 -17 54 -50 78 -75 80 -83 213 -169 341 -221 134 -54 189
-63 356 -57 170 6 369 48 483 102 177 84 363 251 453 405 107 184 125 243 139
463 9 151 4 204 -40 394 -37 157 -93 278 -222 478 -119 185 -155 263 -213 461
-38 128 -53 256 -59 500 -5 229 -24 270 -128 283 -51 6 -53 7 -56 39 -3 30 -1
32 21 27 19 -5 25 -2 30 14 4 17 0 21 -19 21 -18 0 -27 10 -42 43 l-18 42 53
5 c61 6 74 21 26 31 -37 7 -65 27 -58 39 10 16 -7 38 -36 51 -40 16 -22 26 46
27 l53 0 -5 -38 c-6 -46 13 -63 28 -24 5 15 9 41 7 58 -3 25 -8 31 -36 37 -44
9 -48 15 -29 37 23 25 21 49 -4 62 -15 9 -18 15 -10 24 16 18 3 26 -31 19 -27
-5 -30 -4 -23 16 5 16 2 21 -10 21 -11 0 -15 -6 -11 -18z m-46 -578 c34 -23
27 -47 -32 -116 -30 -35 -79 -92 -108 -128 -30 -36 -65 -70 -78 -77 -31 -16
-58 -1 -62 34 -3 27 -4 26 -24 -17 -21 -44 -21 -45 -3 -52 24 -9 24 -16 -1
-53 -15 -22 -20 -47 -20 -95 0 -53 -4 -70 -23 -94 -14 -17 -29 -26 -35 -22
-14 8 -15 129 -3 161 5 11 4 25 -1 31 -5 7 -6 30 -2 52 6 37 22 62 108 168 16
20 23 38 20 51 -4 13 2 33 14 50 10 15 27 41 36 56 19 31 50 47 116 57 70 11
74 11 98 -6z m-122 -535 c10 -17 -13 -36 -27 -22 -12 12 -4 33 11 33 5 0 12
-5 16 -11z m-108 -42 c2 -10 -4 -27 -13 -37 -9 -10 -15 -26 -13 -34 3 -14 8
-13 38 7 48 32 94 47 148 47 38 0 50 -5 76 -33 75 -80 90 -247 22 -247 -31 0
-50 24 -42 54 11 45 -33 146 -64 146 -4 0 -11 -15 -16 -32 -6 -19 -17 -34 -28
-36 -16 -3 -17 1 -11 29 l7 33 -28 -19 c-82 -53 -70 -110 27 -138 33 -10 45
-18 47 -35 5 -33 -17 -54 -50 -50 -22 4 -28 1 -28 -14 0 -14 8 -18 40 -18 68
0 192 77 204 127 10 38 24 53 52 53 51 0 43 -90 -14 -149 -20 -21 -68 -55
-107 -77 -68 -38 -73 -39 -165 -39 -68 1 -104 6 -128 17 -24 13 -34 14 -37 5
-14 -41 -25 -96 -25 -121 0 -24 2 -27 15 -16 15 13 45 7 45 -9 0 -5 -16 -16
-35 -25 -38 -19 -46 -36 -15 -36 10 0 25 -6 31 -13 8 -9 32 -11 74 -9 51 3 70
0 112 -22 28 -14 61 -37 72 -52 28 -36 39 -23 17 22 -42 89 44 111 90 23 12
-24 14 -47 9 -105 -9 -93 -36 -139 -80 -139 -29 0 -30 1 -29 47 0 39 -2 44
-12 30 -10 -13 -15 -14 -27 -3 -12 9 -21 10 -37 1 -22 -12 -50 -7 -50 8 0 5
14 15 30 22 40 17 35 38 -15 67 -41 23 -80 29 -103 15 -19 -13 -5 -37 39 -67
29 -19 39 -32 37 -47 -8 -54 -69 -48 -128 13 l-39 41 -21 -34 c-11 -18 -20
-38 -20 -43 0 -6 26 -28 58 -49 l57 -38 78 7 c66 6 77 5 77 -9 0 -8 -10 -21
-22 -27 -29 -16 -163 -5 -191 15 -12 9 -33 24 -46 33 l-23 17 7 -61 c8 -68 2
-98 -21 -107 -20 -8 -54 11 -54 29 0 8 -9 15 -20 15 -23 0 -27 28 -5 36 12 5
12 8 1 20 -14 13 -11 48 4 69 12 15 14 48 5 68 -8 20 1 51 14 43 4 -3 21 15
37 39 15 25 45 57 66 72 43 29 41 34 -20 52 -60 17 -75 54 -74 186 1 109 22
211 65 305 14 30 32 72 40 92 8 20 24 41 35 47 11 6 23 22 26 36 5 20 12 26
29 23 12 -2 23 -11 25 -21z m-223 -19 c10 -42 10 -81 -1 -85 -13 -4 -34 39
-34 71 0 40 26 50 35 14z m410 -178 c0 -7 -6 -15 -12 -17 -8 -3 -13 4 -13 17
0 13 5 20 13 18 6 -3 12 -11 12 -18z m-463 -344 c4 -6 8 -19 8 -29 0 -14 -5
-17 -20 -12 -18 6 -20 2 -20 -30 0 -56 -24 -39 -28 20 -4 64 2 78 30 69 13 -4
26 -12 30 -18z m367 -31 c23 -22 4 -34 -34 -21 -44 16 -53 25 -35 36 17 11 49
4 69 -15z m-324 -65 c15 -29 13 -50 -4 -50 -15 0 -43 51 -37 66 9 22 24 16 41
-16z m-47 -67 c26 -41 23 -59 -19 -104 -16 -17 -29 -37 -29 -44 0 -18 -29 -40
-39 -29 -13 13 6 54 24 54 8 0 15 7 15 15 0 9 6 28 14 43 12 24 12 30 0 47
-17 23 -18 55 -1 55 6 -1 22 -17 35 -37z m12 -242 c0 -29 -21 -57 -33 -44 -9
8 -9 58 0 66 16 17 33 5 33 -22z m-112 -28 c-4 -22 -22 -20 -26 1 -2 10 3 16
13 16 10 0 15 -7 13 -17z m17 -157 c29 -61 122 -163 189 -207 55 -36 66 -48
66 -71 0 -69 -94 -35 -205 76 -114 114 -162 211 -120 242 24 18 50 3 70 -40z
m394 -187 c26 -15 31 -23 22 -32 -9 -9 -20 -7 -48 8 -20 11 -38 26 -41 33 -6
19 29 14 67 -9z m-41 -115 c42 -29 19 -46 -33 -22 -29 13 -34 38 -7 38 10 0
28 -7 40 -16z m-178 -29 c10 -12 9 -16 -5 -21 -19 -8 -40 9 -31 25 10 15 21
14 36 -4z m104 -55 c37 -14 32 -32 -6 -28 -22 2 -34 9 -36 21 -4 19 6 21 42 7z"/>
<path d="M1418 2684 c-4 -5 -16 -34 -28 -64 -17 -42 -18 -55 -8 -61 14 -9 128
-12 128 -4 0 3 -15 19 -34 36 -21 18 -38 44 -43 67 -5 20 -12 32 -15 26z"/>
<path d="M1410 4030 c0 -7 3 -10 7 -7 3 4 3 10 0 14 -4 3 -7 0 -7 -7z"/>
<path d="M1226 3906 c-43 -7 -71 -16 -74 -25 -4 -11 5 -13 49 -8 30 4 77 7
104 7 59 0 89 14 65 30 -18 12 -53 11 -144 -4z"/>
<path d="M1030 3760 c0 -5 5 -10 10 -10 6 0 10 5 10 10 0 6 -4 10 -10 10 -5 0
-10 -4 -10 -10z"/>
<path d="M1190 3753 c-8 -2 -21 -7 -29 -9 -10 -3 -11 -8 -4 -15 15 -15 123 0
123 17 0 14 -57 18 -90 7z"/>
<path d="M1113 3597 c-4 -7 -17 -17 -28 -21 -20 -7 -20 -7 0 -18 11 -6 23 -16
28 -22 4 -7 10 -8 15 -1 4 6 22 18 40 28 32 18 34 18 46 1 9 -12 15 -14 20 -5
4 6 11 9 16 6 5 -3 11 -1 14 4 9 15 -11 23 -62 26 -26 1 -54 6 -64 9 -10 5
-20 2 -25 -7z"/>
<path d="M1190 3530 c0 -7 3 -10 7 -7 3 4 3 10 0 14 -4 3 -7 0 -7 -7z"/>
<path d="M1073 3523 c4 -3 10 -3 14 0 3 4 0 7 -7 7 -7 0 -10 -3 -7 -7z"/>
<path d="M2248 2848 c-54 -105 -66 -135 -56 -151 12 -22 51 -22 70 1 9 9 30
46 48 81 26 53 30 68 21 88 -18 40 -57 31 -83 -19z"/>
<path d="M344 2665 c-9 -35 12 -56 103 -105 74 -40 96 -42 113 -10 14 26 -11
51 -97 100 -85 47 -110 50 -119 15z"/>
<path d="M2850 2382 c-15 -5 -140 -102 -172 -134 -22 -22 -22 -32 -2 -52 20
-21 46 -20 70 2 10 9 49 41 86 70 72 57 80 68 67 93 -10 20 -29 28 -49 21z"/>
<path d="M15 1960 c-18 -20 -18 -21 1 -41 12 -11 55 -28 100 -39 70 -17 82
-17 102 -4 49 32 16 64 -91 88 -87 20 -90 20 -112 -4z"/>
<path d="M2736 1334 c-32 -31 -11 -56 74 -87 36 -14 84 -33 108 -43 42 -17 43
-17 64 3 12 12 18 28 15 37 -8 19 -105 69 -179 90 -68 19 -63 19 -82 0z"/>
<path d="M150 932 c-61 -41 -75 -73 -40 -92 17 -9 29 -7 65 11 25 13 60 35 78
50 27 23 30 31 21 46 -19 32 -64 26 -124 -15z"/>
<path d="M2156 408 c-24 -14 -20 -40 24 -129 50 -102 57 -111 89 -107 41 5 38
39 -14 143 -46 93 -66 112 -99 93z"/>
<path d="M1209 264 c-14 -17 -22 -166 -13 -217 7 -35 51 -49 71 -22 20 28 18
218 -3 239 -20 20 -38 20 -55 0z"/>
</g>
</svg>
